<svg width="175" height="172" viewBox="0 0 175 172" fill="none" xmlns="http://www.w3.org/2000/svg">
<path d="M160.93 46.7568L155.132 46.7187L147.59 46.4514C146.657 46.4175 145.707 46.4981 144.761 46.7059L117.949 52.5552" stroke="url(#paint0_linear_1_4)" stroke-width="2"/>
<path d="M98.9819 1.46007L82.7744 1.00621C81.8964 0.97652 81.0099 1.05287 80.1404 1.24375C79.7798 1.32434 79.432 1.43038 79.0884 1.54915C79.0502 1.56187 79.0078 1.57036 78.9697 1.58308C78.9188 1.60429 78.8721 1.62974 78.817 1.65095C78.4734 1.78244 78.1425 1.9309 77.8244 2.10057C77.782 2.12177 77.7353 2.14298 77.6929 2.16843C77.3451 2.36355 77.0142 2.58412 76.6961 2.81741C76.6622 2.84286 76.624 2.85983 76.5901 2.88528C76.5392 2.92345 76.4968 2.97011 76.4459 3.00829C76.2592 3.15674 76.0811 3.30945 75.9072 3.47063C75.8266 3.54274 75.7502 3.61485 75.6739 3.6912C75.4533 3.91176 75.237 4.14082 75.0376 4.37835C75.0249 4.39532 75.0079 4.41228 74.991 4.42925C74.991 4.42925 74.991 4.43349 74.9867 4.43773C74.7577 4.71768 74.5456 5.01036 74.3462 5.31576C74.2911 5.40059 74.2359 5.48967 74.1808 5.57875C74.0323 5.81628 73.8966 6.0623 73.7694 6.31256C73.7397 6.37194 73.7015 6.42284 73.676 6.48222C73.6633 6.50767 73.6548 6.53737 73.6421 6.56706C73.464 6.93608 73.307 7.32208 73.1713 7.71231C73.1416 7.7929 73.1204 7.87774 73.0949 7.95833C72.9804 8.32311 72.8786 8.69214 72.8022 9.06965C72.7895 9.12903 72.7726 9.18842 72.7598 9.2478C72.6792 9.66773 72.6283 10.0919 72.5944 10.5245C72.5859 10.6263 72.5817 10.7239 72.5774 10.8257C72.5562 11.2711 72.5477 11.7165 72.5774 12.1703C72.6241 12.8999 72.6326 13.6634 72.6241 14.4481C72.6241 14.6772 72.6114 14.9147 72.6029 15.1522C72.5859 15.7503 72.552 16.3611 72.5011 16.9846C72.4841 17.2222 72.4672 17.4597 72.4459 17.7015C72.3654 18.5456 72.2678 19.4109 72.1363 20.3016C72.1236 20.3737 72.1109 20.4543 72.0981 20.5264C71.9751 21.3536 71.8224 22.1977 71.657 23.0587C71.6019 23.3387 71.5425 23.6229 71.4831 23.9028C71.3346 24.6112 71.1734 25.3323 71.0038 26.0661C70.9402 26.3333 70.8808 26.6005 70.8129 26.8677C70.5711 27.8433 70.3081 28.8316 70.024 29.8369C69.9858 29.9769 69.9391 30.1211 69.8967 30.2611C69.6422 31.1391 69.3707 32.0299 69.0823 32.9249C68.9805 33.2388 68.8787 33.5569 68.7726 33.875C68.5097 34.6682 68.2382 35.4656 67.954 36.2673C67.8564 36.543 67.7631 36.8187 67.6613 37.0987C67.2796 38.1549 66.8766 39.2195 66.4567 40.2927C66.3803 40.4878 66.2998 40.6829 66.2192 40.878C65.8629 41.773 65.4938 42.6723 65.1121 43.5757C64.9721 43.9066 64.8279 44.2417 64.6837 44.5725C64.3189 45.4166 63.9456 46.2607 63.5596 47.1048C63.4366 47.3763 63.3179 47.6435 63.1906 47.915C62.6943 48.9924 62.1811 50.074 61.6509 51.1556C61.3031 51.8597 60.9425 52.5639 60.582 53.2722C60.3105 53.8024 60.0518 54.3326 59.776 54.8629C59.3943 55.5924 58.9956 56.322 58.6011 57.0473C58.3296 57.5478 58.0666 58.0484 57.7909 58.5446C57.3456 59.3463 56.8832 60.1395 56.4209 60.9369C56.1791 61.3526 55.95 61.7725 55.704 62.184C55.0211 63.3377 54.3255 64.4787 53.6129 65.6113C53.5832 65.6622 53.5535 65.7131 53.5238 65.7597L52.3998 66.0057C52.0901 66.0736 51.7932 66.1584 51.5005 66.2645C51.3902 66.3027 51.2927 66.362 51.1866 66.4087C51.0679 66.4596 50.9491 66.5147 50.8303 66.5699C50.5122 66.7268 50.2068 66.905 49.9184 67.1043C49.8505 67.151 49.7784 67.1892 49.7105 67.2401C49.6893 67.257 49.6639 67.2698 49.6427 67.2825C49.333 67.52 49.0488 67.7872 48.7774 68.0714C48.718 68.1351 48.6628 68.1945 48.6035 68.2581C48.5398 68.3302 48.4677 68.3981 48.4041 68.4744C48.1963 68.7289 48.0054 68.9961 47.8315 69.2761C47.806 69.3185 47.7806 69.3652 47.7551 69.4118C47.7042 69.4966 47.6533 69.5772 47.6067 69.6621" stroke="url(#paint1_linear_1_4)" stroke-width="2"/>
<path d="M74.0993 160.671C74.6846 160.862 75.2997 160.968 75.9274 160.994H86.8074" stroke="url(#paint2_linear_1_4)" stroke-width="2"/>
<path d="M51.8813 69.785L36.378 69.5178C35.6654 69.4923 34.9443 69.556 34.2147 69.7129L9.12516 75.1847C8.76461 75.2653 8.4168 75.3713 8.07322 75.4901C8.03929 75.5028 8.00535 75.507 7.97142 75.5198C7.91203 75.541 7.86113 75.5749 7.80175 75.5961C7.48787 75.7191 7.18671 75.8549 6.89403 76.0076C6.81344 76.05 6.72861 76.0882 6.65226 76.1348C6.30444 76.3299 5.97359 76.5463 5.65546 76.7838C5.63849 76.7965 5.61728 76.8092 5.59608 76.822C5.52821 76.8729 5.47307 76.9322 5.40944 76.9831C5.22705 77.1274 5.0489 77.2801 4.87923 77.437C4.78591 77.5261 4.69684 77.6152 4.60776 77.7042C4.45506 77.8612 4.3066 78.0181 4.16239 78.1835C4.11573 78.2387 4.06059 78.2896 4.01393 78.3447C3.98 78.3871 3.95455 78.4296 3.92061 78.472C3.75094 78.6841 3.594 78.9046 3.4413 79.1337C3.3904 79.2058 3.3395 79.2779 3.29284 79.35C3.10197 79.6512 2.92382 79.965 2.76687 80.2874C2.75839 80.3044 2.74991 80.3171 2.74142 80.3341C2.72446 80.368 2.71597 80.4019 2.70325 80.4359C2.50389 80.8516 2.33422 81.2842 2.19425 81.7296C2.17728 81.7847 2.15607 81.8356 2.1391 81.8908C2.00337 82.3489 1.90157 82.8197 1.82946 83.299C1.81674 83.3881 1.79977 83.4814 1.79129 83.5705C1.7319 84.0455 1.70221 84.5333 1.70645 85.0211C1.70645 85.1017 1.71494 85.1866 1.71494 85.2672C1.7319 85.7846 1.77856 86.3021 1.87612 86.8239L16.0942 162.856C16.9468 167.412 20.6159 170.58 24.7854 170.729L41.4213 170.996" stroke="url(#paint3_linear_1_4)" stroke-width="2"/>
<path d="M173.297 55.9918C171.888 49.5105 165.615 45.6421 159.503 46.9739L117.128 56.2166C122.838 31.7421 122.659 11.3777 106.007 2.53808C103.75 1.33769 101.188 0.977144 98.7151 1.51584C93.9517 2.55505 90.8213 7.26756 91.1479 12.4509C91.9836 25.4135 83.8056 47.4151 72.0943 66.0445L70.9703 66.2906C67.0679 67.1431 64.5314 71.2152 65.3119 75.3762L68.2132 90.8796L68.3616 91.6728L72.6712 114.709L77.1292 138.552L80.1747 154.84C80.9552 159.014 84.7557 161.694 88.6538 160.842L157.819 145.754C163.944 144.418 168.338 138.234 167.295 131.672C166.221 124.881 160.113 120.448 153.836 121.818L159.32 120.622C165.445 119.286 169.835 113.089 168.792 106.527C167.719 99.7362 161.611 95.3037 155.333 96.6737L162.404 95.1298C168.092 93.8912 172.338 88.4321 171.922 82.2605C171.524 76.373 167.422 72.0168 162.459 71.143L164.431 70.7104C170.709 69.3403 174.747 62.6979 173.292 55.9875L173.297 55.9918Z" stroke="black" stroke-width="2"/>
<path d="M50.2398 69.9803L25.1502 75.4521C20.1493 76.5422 16.9044 81.7553 17.9012 87.0913L32.1193 163.123C33.1161 168.459 37.9813 171.891 42.9823 170.797L68.0718 165.325C73.0728 164.235 76.3092 159.039 75.3124 153.703L61.0942 77.6705C60.0974 72.3345 55.245 68.8902 50.244 69.9803H50.2398Z" stroke="black" stroke-width="2"/>
<path d="M53.5185 65.7724L72.0928 66.0396" stroke="black" stroke-width="2"/>
<path d="M164.988 5.9699C160.436 -2.71259 147.568 -1.36357 142.895 6.40276H146.887C143.294 0.275432 134.477 -2.14944 129.623 4.0031C125.269 9.51686 126.929 17.7118 130.296 23.2718C132.124 26.2935 134.561 28.9621 137.301 31.1768C138.57 32.2023 139.898 33.1647 141.294 34.0136C142.689 34.8625 144 36.0308 145.66 36.3754C149.085 37.0856 151.195 34.4632 153.359 32.3157C155.624 30.0674 157.898 27.8232 159.94 25.3731C164.551 19.8425 168.173 13.1016 164.983 5.9657C163.773 3.25505 159.785 5.60428 160.991 8.29812C163.441 13.7783 158.978 19.5484 155.524 23.4315C153.565 25.6337 151.451 27.6803 149.371 29.7606C148.64 30.4918 147.564 32.1729 146.379 31.803C145.79 31.6223 145.194 30.9541 144.664 30.6263C143.979 30.2019 143.273 29.811 142.601 29.3655C137.221 25.806 132.237 20.0947 131.703 13.4126C131.481 10.6347 131.968 7.26429 134.544 5.65471C137.663 3.70472 141.281 5.9783 142.895 8.73098C143.782 10.2439 145.996 10.2145 146.887 8.73098C149.846 3.81399 158.091 2.75074 160.995 8.29812C162.378 10.9331 166.366 8.6007 164.988 5.9657V5.9699Z" fill="url(#paint4_linear_1_4)"/>
<defs>
<linearGradient id="paint0_linear_1_4" x1="117.898" y1="49.4927" x2="161.142" y2="49.4927" gradientUnits="userSpaceOnUse">
<stop stop-color="#111111"/>
<stop offset="0.1" stop-color="#0A0A0A"/>
<stop offset="0.33" stop-color="#020202"/>
<stop offset="0.71"/>
</linearGradient>
<linearGradient id="paint1_linear_1_4" x1="47.4285" y1="35.2832" x2="98.9904" y2="35.2832" gradientUnits="userSpaceOnUse">
<stop stop-color="#111111"/>
<stop offset="0.1" stop-color="#0A0A0A"/>
<stop offset="0.33" stop-color="#020202"/>
<stop offset="0.71"/>
</linearGradient>
<linearGradient id="paint2_linear_1_4" x1="74.0356" y1="160.837" x2="86.8074" y2="160.837" gradientUnits="userSpaceOnUse">
<stop stop-color="#111111"/>
<stop offset="0.1" stop-color="#0A0A0A"/>
<stop offset="0.33" stop-color="#020202"/>
<stop offset="0.71"/>
</linearGradient>
<linearGradient id="paint3_linear_1_4" x1="1.49013" y1="120.253" x2="51.8856" y2="120.253" gradientUnits="userSpaceOnUse">
<stop stop-color="#111111"/>
<stop offset="0.1" stop-color="#0A0A0A"/>
<stop offset="0.33" stop-color="#020202"/>
<stop offset="0.71"/>
</linearGradient>
<linearGradient id="paint4_linear_1_4" x1="129.136" y1="18.2498" x2="164.214" y2="18.2498" gradientUnits="userSpaceOnUse">
<stop stop-color="#963F7F"/>
<stop offset="0.5" stop-color="#603C7D"/>
<stop offset="1" stop-color="#413A7E"/>
</linearGradient>
</defs>
</svg>
