<svg width="159" height="170" viewBox="0 0 159 170" fill="none" xmlns="http://www.w3.org/2000/svg">
<path d="M22.3934 125.684C16.7746 130 10.5738 133.723 5.7296 138.964C2.47639 142.484 -3.81232 151.044 3.14629 154.287C5.3779 155.326 7.98215 155.036 10.3394 154.716C13.2576 154.317 16.1801 153.783 19.136 153.619C20.5261 153.543 23.2266 153.274 24.3194 154.376C25.4122 155.478 23.997 156.571 23.1429 157.244C21.309 158.683 19.0062 160.147 18.3573 162.553C17.4236 166.019 20.8359 168.551 23.8588 169.018C28.6109 169.75 33.7231 168.446 38.3455 167.449C41.2428 166.826 40.016 162.363 37.1229 162.986C33.4217 163.781 29.6493 164.652 25.8434 164.551C25.027 164.53 24.1645 164.517 23.4401 164.096C23.1219 163.911 22.8289 163.356 22.7995 163.781C22.8414 163.15 24.0682 162.342 24.5078 161.981C26.2998 160.517 28.2132 159.406 28.9961 157.076C29.9214 154.317 28.7784 151.473 26.216 150.119C21.3802 147.557 14.8319 149.488 9.71971 150.174C8.60599 150.321 5.64168 150.964 4.7708 149.917C3.48543 148.373 7.40854 144.028 8.32966 142.972C12.998 137.63 19.1528 133.962 24.7213 129.685C27.045 127.901 24.7548 123.88 22.3976 125.689L22.3934 125.684Z" fill="url(#paint0_linear_1_2)"/>
<path d="M37.8096 136.771L37.0004 165.273C36.9803 165.941 37.6606 166.408 38.2766 166.15L64.8499 155.132C65.337 154.931 65.7556 154.593 66.0576 154.158C66.0576 154.158 156.747 22.8173 156.755 22.8052C157.617 21.5572 157.581 19.5323 157.387 18.1234C156.494 11.4891 150.773 5.73644 144.968 2.99899C141.551 1.38874 137.63 0.454785 133.882 1.34445C128.765 2.5602 126.41 6.79518 123.677 10.7806C121.45 14.0252 119.228 17.2659 117.002 20.5106C114.003 24.8824 111.004 29.2543 108.005 33.6301C104.47 38.783 100.936 43.9398 97.4013 49.0927C93.5688 54.6803 89.7364 60.2679 85.908 65.8555C82.0193 71.5276 78.1265 77.1997 74.2377 82.8759C70.3489 88.5521 66.8184 93.6969 63.1068 99.1073C59.8138 103.91 56.5208 108.708 53.2318 113.511C50.5951 117.356 47.9623 121.196 45.3255 125.041C43.5864 127.577 41.8473 130.113 40.1042 132.653C39.4963 133.539 38.8925 134.42 38.2846 135.306C37.9867 135.741 37.8217 136.252 37.8056 136.779L37.8096 136.771Z" stroke="black" stroke-width="2" stroke-miterlimit="10"/>
<path d="M122.545 12.4312C122.545 12.4312 118.669 19.6411 131.748 29.4516C131.748 29.4516 143.374 37.7243 149.654 33.0868" stroke="black" stroke-width="2" stroke-miterlimit="10"/>
<path d="M129.501 3.49985C129.501 3.49985 126.7 11.6639 139.001 20.9998C139.001 20.9998 149.935 28.8724 155.841 24.4592" stroke="black" stroke-width="2" stroke-miterlimit="10"/>
<path d="M115.77 22.3019C115.77 22.3019 111.873 29.4797 125.021 39.2419C125.021 39.2419 136.547 47.5951 142.855 42.9777" stroke="black" stroke-width="2" stroke-miterlimit="10"/>
<path d="M113.367 25.7399C113.367 25.7399 109.47 32.9176 122.618 42.6798C122.618 42.6798 134.308 50.7874 140.621 46.17" stroke="black" stroke-width="2" stroke-miterlimit="10"/>
<path d="M37.8337 135.962C37.8337 135.962 36.6663 142.882 47.3705 151.356C47.3705 151.356 57.9016 158.413 65.6026 154.822" stroke="black" stroke-width="2" stroke-miterlimit="10"/>
<path d="M37.2056 158.023C37.8095 159.057 38.8119 160.281 40.4664 161.589C40.4664 161.589 42.5235 162.966 44.8866 163.409" stroke="black" stroke-width="2" stroke-miterlimit="10"/>
<path d="M118.041 18.9768C118.041 18.9768 114.144 26.1546 127.292 35.9168C127.292 35.9168 138.801 44.278 145.113 39.6646" stroke="black" stroke-width="2" stroke-miterlimit="10"/>
<path d="M120.066 16.0461C120.066 16.0461 116.169 23.2238 129.316 32.986C129.316 32.986 141.007 41.0816 147.319 36.4682" stroke="black" stroke-width="2" stroke-miterlimit="10"/>
<defs>
<linearGradient id="paint0_linear_1_2" x1="2.09538" y1="147.225" x2="37.776" y2="147.225" gradientUnits="userSpaceOnUse">
<stop stop-color="#963F7F"/>
<stop offset="0.5" stop-color="#603C7D"/>
<stop offset="1" stop-color="#413A7E"/>
</linearGradient>
</defs>
</svg>
