<svg width="234" height="234" viewBox="0 0 234 234" fill="none"
  xmlns="http://www.w3.org/2000/svg">
  <path d="M53.287 22.8479L52.1832 23.6684C51.7826 23.3168 51.3431 23.0823 50.8839 22.9847C50.415 22.887 49.9462 22.887 49.487 23.0042C49.0279 23.1214 48.5883 23.3265 48.178 23.6294C47.6212 24.0396 47.2305 24.5476 46.9863 25.163C46.7421 25.7784 46.6932 26.4524 46.8397 27.185C46.9765 27.9273 47.3379 28.6893 47.9241 29.4805C48.5102 30.2717 49.1354 30.8383 49.7996 31.1899C50.4639 31.5416 51.1281 31.6881 51.7826 31.6392C52.4371 31.5904 53.0428 31.356 53.5898 30.9457C53.9903 30.6429 54.3225 30.2912 54.5667 29.881C54.8109 29.4707 54.9574 29.0214 54.9965 28.5525C55.0356 28.0836 54.9477 27.5952 54.723 27.1068L55.8268 26.2863C56.1785 26.9994 56.3446 27.7027 56.325 28.406C56.3055 29.1093 56.1297 29.7638 55.7878 30.3889C55.4459 31.0141 54.977 31.5416 54.3615 31.9909C53.5801 32.5672 52.7497 32.8896 51.8608 32.958C50.9719 33.0263 50.0927 32.8407 49.2233 32.3914C48.3539 31.9518 47.5626 31.2388 46.8495 30.2815C46.1364 29.3144 45.6968 28.3571 45.521 27.3999C45.3452 26.4426 45.4233 25.5439 45.7554 24.7136C46.0778 23.8833 46.6346 23.18 47.4161 22.6037C48.0315 22.1544 48.6762 21.8515 49.3698 21.705C50.0634 21.5585 50.7472 21.578 51.4212 21.7734C52.0952 21.959 52.7204 22.3204 53.2968 22.8674L53.287 22.8479Z" fill="url(#paint0_linear_5_88)"/>
  <path d="M64.9743 18.3153C65.58 19.3507 65.9121 20.3568 65.9805 21.3239C66.0489 22.3007 65.873 23.1798 65.4628 23.9711C65.0525 24.7623 64.4273 25.3972 63.5872 25.8954C62.7471 26.3838 61.8875 26.6182 60.9985 26.5889C60.1096 26.5596 59.2597 26.2763 58.4392 25.7489C57.6186 25.2214 56.9153 24.4302 56.3096 23.3947C55.704 22.3593 55.3718 21.3532 55.3034 20.3861C55.2351 19.4093 55.4109 18.5302 55.8212 17.739C56.2315 16.9477 56.8567 16.3128 57.6968 15.8244C58.5368 15.336 59.3965 15.1016 60.2854 15.1309C61.1744 15.1602 62.0242 15.4434 62.8448 15.9709C63.6653 16.4984 64.3687 17.2896 64.9743 18.3251V18.3153ZM63.8216 18.9893C63.3234 18.1395 62.7666 17.5045 62.1415 17.0845C61.5163 16.6645 60.8813 16.4496 60.217 16.43C59.5528 16.4105 58.9374 16.5765 58.3415 16.9184C57.7456 17.2701 57.2962 17.7292 56.9934 18.3153C56.6906 18.9014 56.5636 19.5656 56.6222 20.308C56.6808 21.0601 56.9641 21.8611 57.4525 22.711C57.941 23.5608 58.5075 24.1957 59.1327 24.6157C59.7579 25.0358 60.3929 25.2507 61.0571 25.2702C61.7214 25.2898 62.3368 25.1237 62.9327 24.7818C63.5286 24.4302 63.9779 23.9711 64.2808 23.385C64.5836 22.7989 64.7106 22.1346 64.652 21.3923C64.5934 20.6401 64.3101 19.8391 63.8216 18.9893Z" fill="url(#paint1_linear_5_88)"/>
  <path d="M65.1173 11.839L66.6217 11.1845L73.909 18.3153L74.036 18.2665L73.8406 8.0685L75.345 7.41403L79.8483 17.8464L78.6663 18.3544L75.2473 10.4226L75.1496 10.4617L75.3059 19.8001L74.163 20.2885L67.4813 13.7633L67.3836 13.8122L70.8026 21.7439L69.6206 22.2519L65.1173 11.8195V11.839Z" fill="url(#paint2_linear_5_88)"/>
  <path d="M82.5361 16.9871L79.2344 6.10533L82.9074 4.99176C83.7572 4.73779 84.5094 4.67918 85.1444 4.81594C85.7793 4.95269 86.3068 5.24574 86.7269 5.6853C87.1469 6.12487 87.4497 6.67189 87.6451 7.30682C87.8405 7.95152 87.8893 8.56691 87.7819 9.17254C87.6842 9.77816 87.4107 10.3154 86.9613 10.7843C86.512 11.2629 85.8672 11.6243 85.0174 11.8783L82.6338 12.6012L83.8354 16.5768L82.5166 16.9773L82.5361 16.9871ZM82.2919 11.4485L84.6266 10.7354C85.5058 10.4717 86.0528 10.0614 86.297 9.51442C86.5315 8.96741 86.551 8.36178 86.3557 7.70731C86.1603 7.05285 85.8086 6.56444 85.3007 6.25186C84.8025 5.92951 84.1089 5.90997 83.22 6.17371L80.9048 6.87702L82.2919 11.4485Z" fill="url(#paint3_linear_5_88)"/>
  <path d="M91.1957 14.447L89.7891 14.7498L91.5083 2.76424L92.8955 2.47119L99.3427 12.718L97.9263 13.0208L96.1386 10.1099L91.6451 11.0672L91.1957 14.4567V14.447ZM91.8112 9.77778L95.4548 9.00609L92.6122 4.36621L92.5243 4.38575L91.8112 9.77778Z" fill="url(#paint4_linear_5_88)"/>
  <path d="M108.585 0.253906L109.786 11.5557L108.458 11.6924L101.356 3.46763H101.249L102.186 12.3567L100.819 12.5032L99.6172 1.20142L100.946 1.06466L108.067 9.30899H108.174L107.237 0.400429L108.585 0.253906Z" fill="url(#paint5_linear_5_88)"/>
  <path d="M111.141 0.156291L112.713 0.126986L115.947 5.38226H116.084L119.151 0.0293045L120.724 0L116.728 6.7498L116.806 11.4288L115.429 11.4483L115.351 6.76934L111.141 0.156291Z" fill="url(#paint6_linear_5_88)"/>
  <path d="M126.734 11.8682L128.209 0.595703L132.019 1.09388C132.908 1.2111 133.602 1.46507 134.129 1.8558C134.657 2.24652 135.008 2.73493 135.213 3.30148C135.419 3.87781 135.467 4.4932 135.38 5.15744C135.292 5.82167 135.077 6.40776 134.735 6.9157C134.393 7.42365 133.924 7.80461 133.318 8.04881C132.713 8.29302 131.97 8.36139 131.101 8.24417L128.639 7.92183L128.102 12.0342L126.734 11.8584V11.8682ZM128.796 6.72034L131.218 7.04269C132.127 7.15991 132.801 7.02315 133.24 6.61289C133.68 6.2124 133.953 5.66538 134.041 4.99138C134.129 4.31737 134.012 3.72152 133.68 3.23311C133.357 2.73493 132.732 2.43212 131.814 2.30513L129.411 1.99255L128.796 6.72034Z" fill="url(#paint7_linear_5_88)"/>
  <path d="M136.322 13.2456L138.843 2.15869L142.584 3.00852C143.453 3.20388 144.127 3.51647 144.616 3.9365C145.104 4.35653 145.427 4.8547 145.573 5.42126C145.72 5.99758 145.729 6.60321 145.573 7.25767C145.407 7.99028 145.094 8.59591 144.635 9.06478C144.176 9.53365 143.561 9.80716 142.799 9.89508L144.264 15.0429L142.701 14.6912L141.343 9.8267C141.255 9.80716 141.158 9.78763 141.06 9.76809L138.637 9.22107L137.651 13.5484L136.312 13.2456H136.322ZM138.921 8.00982L141.304 8.54707C142.193 8.7522 142.867 8.70336 143.336 8.40055C143.805 8.1075 144.108 7.62886 144.264 6.96463C144.42 6.30039 144.342 5.7143 144.059 5.22589C143.766 4.73749 143.18 4.3956 142.281 4.19047L139.917 3.65322L138.93 8.00982H138.921Z" fill="url(#paint8_linear_5_88)"/>
  <path d="M156.685 13.1577C156.304 14.2909 155.767 15.2091 155.074 15.8928C154.38 16.5864 153.608 17.0259 152.739 17.2408C151.869 17.446 150.981 17.3971 150.062 17.0846C149.144 16.772 148.402 16.2738 147.835 15.5803C147.268 14.8867 146.927 14.0662 146.79 13.0991C146.663 12.1321 146.79 11.0869 147.171 9.94402C147.552 8.81092 148.089 7.89271 148.783 7.20894C149.476 6.5154 150.248 6.07583 151.117 5.86093C151.987 5.6558 152.876 5.70464 153.794 6.01722C154.712 6.3298 155.455 6.82798 156.021 7.52152C156.588 8.21506 156.93 9.03558 157.066 10.0026C157.193 10.9697 157.066 12.0149 156.685 13.1577ZM155.425 12.728C155.738 11.8 155.855 10.9599 155.757 10.2078C155.66 9.45562 155.406 8.83045 154.995 8.32251C154.575 7.81456 154.048 7.45314 153.393 7.22847C152.739 7.00381 152.094 6.9745 151.459 7.12102C150.824 7.27731 150.238 7.6192 149.711 8.15645C149.183 8.6937 148.763 9.42631 148.45 10.3641C148.138 11.292 148.021 12.1321 148.118 12.8842C148.216 13.6266 148.47 14.2616 148.88 14.7695C149.3 15.2774 149.828 15.6389 150.482 15.8635C151.137 16.0882 151.782 16.1175 152.417 15.971C153.051 15.8245 153.638 15.4728 154.165 14.9356C154.693 14.3983 155.113 13.6657 155.425 12.728Z" fill="url(#paint9_linear_5_88)"/>
  <path d="M156.773 19.3899L161.453 9.03564L167.665 11.8391L167.167 12.9527L162.215 10.7158L160.632 14.2128L165.126 16.2445L164.627 17.3581L160.134 15.3263L158.043 19.9565L156.793 19.3899H156.773Z" fill="url(#paint10_linear_5_88)"/>
  <path d="M171.449 13.8317L166.135 23.8832L164.914 23.2385L170.228 13.187L171.449 13.8317Z" fill="url(#paint11_linear_5_88)"/>
  <path d="M168.432 25.1041L174.342 15.3945L175.514 16.1076L170.239 24.772L174.752 27.5168L174.117 28.562L168.422 25.1041H168.432Z" fill="url(#paint12_linear_5_88)"/>
  <path d="M175.705 29.6464L182.406 20.4644L187.945 24.5084L187.222 25.495L182.797 22.2617L180.531 25.368L184.673 28.3863L183.95 29.3729L179.808 26.3448L177.532 29.4608L182.035 32.7429L181.312 33.7295L175.695 29.6367L175.705 29.6464Z" fill="url(#paint13_linear_5_88)"/>
  <path d="M209.915 52.9433L209.095 51.8395C209.446 51.439 209.681 50.9995 209.779 50.5306C209.876 50.0617 209.866 49.5929 209.749 49.1337C209.632 48.6746 209.427 48.2351 209.124 47.8248C208.714 47.2778 208.196 46.8773 207.59 46.6429C206.975 46.4084 206.301 46.3596 205.568 46.4963C204.826 46.6429 204.064 47.0043 203.282 47.5904C202.501 48.1765 201.925 48.8114 201.583 49.4756C201.231 50.1399 201.094 50.8041 201.143 51.4586C201.192 52.113 201.426 52.7187 201.837 53.2657C202.139 53.6662 202.491 53.9885 202.911 54.2425C203.331 54.4965 203.771 54.6332 204.25 54.6625C204.728 54.7016 205.207 54.6039 205.695 54.3792L206.516 55.4831C205.812 55.8347 205.109 56.0008 204.406 55.991C203.702 55.9715 203.048 55.7956 202.423 55.4635C201.807 55.1314 201.27 54.6528 200.811 54.0374C200.235 53.2559 199.903 52.4256 199.834 51.5367C199.766 50.6478 199.951 49.7687 200.391 48.8993C200.831 48.0299 201.534 47.2387 202.491 46.5159C203.448 45.8028 204.416 45.3535 205.373 45.1776C206.33 45.0018 207.229 45.08 208.059 45.4023C208.89 45.7247 209.593 46.2717 210.179 47.0531C210.638 47.6685 210.931 48.3132 211.088 49.0068C211.234 49.7003 211.215 50.3743 211.029 51.0581C210.843 51.7321 210.482 52.367 209.945 52.9433H209.915Z" fill="url(#paint14_linear_5_88)"/>
  <path d="M214.488 64.6166C213.453 65.2222 212.456 65.5641 211.479 65.6325C210.502 65.7008 209.623 65.5348 208.832 65.1245C208.041 64.7142 207.396 64.0891 206.908 63.2588C206.419 62.4285 206.185 61.5591 206.204 60.6702C206.234 59.7813 206.507 58.9217 207.035 58.111C207.562 57.2904 208.344 56.5774 209.379 55.9717C210.415 55.3661 211.411 55.0242 212.388 54.9558C213.365 54.8875 214.244 55.0535 215.035 55.4638C215.826 55.8741 216.471 56.4992 216.959 57.3295C217.448 58.1598 217.682 59.0292 217.663 59.9181C217.633 60.807 217.36 61.6666 216.832 62.4773C216.305 63.2979 215.523 64.0109 214.488 64.6166ZM213.814 63.4737C214.664 62.9755 215.289 62.409 215.709 61.7838C216.129 61.1586 216.344 60.5139 216.364 59.8595C216.383 59.205 216.217 58.5798 215.865 57.984C215.514 57.3881 215.045 56.9486 214.468 56.636C213.882 56.3332 213.218 56.2159 212.466 56.2745C211.714 56.3332 210.922 56.6164 210.073 57.1146C209.223 57.6128 208.598 58.1793 208.178 58.8045C207.757 59.4297 207.543 60.0744 207.523 60.7288C207.503 61.3833 207.67 62.0085 208.021 62.6043C208.373 63.2002 208.842 63.6397 209.418 63.9523C210.004 64.2551 210.668 64.3724 211.421 64.3137C212.173 64.2551 212.964 63.9719 213.814 63.4737Z" fill="url(#paint15_linear_5_88)"/>
  <path d="M220.966 64.7334L221.621 66.2377L214.519 73.5541L214.568 73.6713L224.756 73.4368L225.411 74.9411L214.988 79.4833L214.47 78.3014L222.382 74.8532L222.334 74.7555L212.995 74.9509L212.497 73.808L218.993 67.0973L218.954 66.9996L211.041 70.4478L210.523 69.2658L220.947 64.7236L220.966 64.7334Z" fill="url(#paint16_linear_5_88)"/>
  <path d="M215.893 82.1796L226.755 78.8389L227.879 82.5117C228.142 83.3615 228.201 84.1137 228.064 84.7486C227.927 85.3835 227.634 85.911 227.195 86.331C226.755 86.7511 226.218 87.0637 225.573 87.259C224.929 87.4544 224.313 87.5032 223.707 87.4056C223.102 87.3079 222.565 87.0344 222.086 86.585C221.607 86.1357 221.246 85.491 220.982 84.6509L220.249 82.2773L216.283 83.4983L215.883 82.1796H215.893ZM221.431 81.9158L222.144 84.2504C222.408 85.1198 222.818 85.6766 223.375 85.911C223.932 86.1455 224.528 86.165 225.182 85.9599C225.837 85.7547 226.325 85.4031 226.638 84.9049C226.951 84.4067 226.98 83.7034 226.706 82.8243L225.993 80.5092L221.431 81.9158Z" fill="url(#paint17_linear_5_88)"/>
  <path d="M218.451 90.8051L218.148 89.3984L230.144 91.0688L230.447 92.4559L220.219 98.9419L219.917 97.5353L222.818 95.738L221.841 91.2446L218.451 90.8051ZM223.121 91.4107L223.912 95.0542L228.542 92.1921L228.523 92.1042L223.121 91.4107Z" fill="url(#paint18_linear_5_88)"/>
  <path d="M232.724 108.173L221.422 109.413L221.276 108.085L229.471 100.954V100.847L220.592 101.814L220.445 100.446L231.748 99.2056L231.894 100.534L223.679 107.684V107.792L232.588 106.815L232.734 108.163L232.724 108.173Z" fill="url(#paint19_linear_5_88)"/>
  <path d="M232.845 110.722L232.875 112.295L227.619 115.528V115.665L232.982 118.732L233.011 120.305L226.261 116.31L221.582 116.388L221.562 115.01L226.242 114.932L232.855 110.722H232.845Z" fill="url(#paint20_linear_5_88)"/>
  <path d="M221.17 126.341L232.443 127.777L231.954 131.587C231.837 132.476 231.593 133.179 231.202 133.697C230.812 134.224 230.333 134.586 229.757 134.781C229.18 134.986 228.565 135.045 227.901 134.957C227.236 134.869 226.65 134.664 226.142 134.322C225.634 133.98 225.253 133.511 224.999 132.906C224.755 132.3 224.677 131.567 224.794 130.688L225.107 128.217L220.984 127.689L221.16 126.322L221.17 126.341ZM226.328 128.383L226.015 130.805C225.898 131.714 226.045 132.388 226.455 132.827C226.865 133.267 227.402 133.531 228.076 133.619C228.76 133.706 229.346 133.58 229.835 133.257C230.333 132.925 230.636 132.31 230.753 131.391L231.056 128.988L226.318 128.383H226.328Z" fill="url(#paint21_linear_5_88)"/>
  <path d="M219.831 135.943L230.928 138.415L230.088 142.166C229.892 143.035 229.589 143.709 229.169 144.197C228.749 144.686 228.251 145.008 227.685 145.165C227.108 145.321 226.503 145.321 225.848 145.174C225.115 145.008 224.51 144.696 224.031 144.237C223.562 143.777 223.279 143.162 223.201 142.4L218.062 143.885L218.414 142.322L223.279 140.945C223.298 140.857 223.318 140.759 223.338 140.661L223.875 138.239L219.538 137.272L219.84 135.924L219.831 135.943ZM225.076 138.522L224.549 140.906C224.353 141.795 224.402 142.469 224.695 142.937C224.988 143.406 225.477 143.709 226.141 143.856C226.805 144.002 227.391 143.934 227.87 143.641C228.359 143.348 228.7 142.752 228.906 141.853L229.433 139.489L225.076 138.512V138.522Z" fill="url(#paint22_linear_5_88)"/>
  <path d="M219.988 156.32C218.855 155.939 217.936 155.412 217.243 154.718C216.549 154.034 216.1 153.253 215.885 152.393C215.68 151.524 215.719 150.635 216.031 149.717C216.334 148.799 216.833 148.056 217.526 147.49C218.21 146.923 219.04 146.571 220.007 146.435C220.974 146.298 222.02 146.425 223.163 146.806C224.296 147.187 225.214 147.714 225.908 148.408C226.601 149.101 227.05 149.873 227.265 150.733C227.47 151.602 227.431 152.491 227.119 153.409C226.816 154.327 226.318 155.07 225.624 155.636C224.931 156.203 224.11 156.555 223.143 156.691C222.176 156.828 221.131 156.701 219.988 156.32ZM220.408 155.06C221.346 155.373 222.186 155.48 222.928 155.382C223.671 155.285 224.296 155.031 224.804 154.611C225.312 154.191 225.673 153.653 225.888 153.009C226.103 152.354 226.142 151.71 225.986 151.075C225.829 150.44 225.487 149.854 224.95 149.326C224.413 148.799 223.68 148.388 222.743 148.076C221.805 147.763 220.965 147.656 220.222 147.753C219.48 147.851 218.855 148.105 218.347 148.525C217.839 148.945 217.477 149.482 217.262 150.127C217.047 150.782 217.008 151.426 217.165 152.061C217.321 152.696 217.663 153.282 218.2 153.81C218.737 154.337 219.47 154.747 220.408 155.06Z" fill="url(#paint23_linear_5_88)"/>
  <path d="M213.762 156.408L224.136 161.048L221.352 167.27L220.238 166.772L222.456 161.81L218.949 160.247L216.937 164.75L215.823 164.252L217.835 159.748L213.195 157.678L213.762 156.417V156.408Z" fill="url(#paint24_linear_5_88)"/>
  <path d="M219.376 171.06L209.305 165.785L209.94 164.564L220.011 169.839L219.376 171.06Z" fill="url(#paint25_linear_5_88)"/>
  <path d="M208.087 168.09L217.816 173.961L217.103 175.143L208.419 169.907L205.694 174.43L204.648 173.795L208.087 168.09Z" fill="url(#paint26_linear_5_88)"/>
  <path d="M203.573 175.387L212.776 182.059L208.751 187.617L207.764 186.904L210.978 182.459L207.872 180.203L204.863 184.354L203.876 183.641L206.885 179.49L203.759 177.224L200.487 181.737L199.5 181.023L203.573 175.397V175.387Z" fill="url(#paint27_linear_5_88)"/>
  <path d="M180.405 209.684L181.509 208.853C181.909 209.205 182.349 209.43 182.818 209.527C183.286 209.625 183.755 209.615 184.214 209.498C184.683 209.381 185.113 209.166 185.514 208.863C186.061 208.453 186.461 207.935 186.696 207.32C186.93 206.704 186.979 206.03 186.832 205.298C186.686 204.555 186.315 203.793 185.729 203.012C185.133 202.23 184.508 201.664 183.843 201.312C183.179 200.961 182.515 200.824 181.86 200.882C181.206 200.941 180.6 201.176 180.053 201.586C179.653 201.889 179.33 202.25 179.086 202.66C178.842 203.071 178.705 203.52 178.666 203.999C178.627 204.477 178.725 204.956 178.949 205.444L177.845 206.275C177.494 205.571 177.318 204.868 177.337 204.165C177.357 203.461 177.523 202.797 177.865 202.182C178.207 201.566 178.676 201.019 179.281 200.56C180.053 199.974 180.883 199.652 181.772 199.574C182.661 199.495 183.54 199.681 184.41 200.121C185.279 200.56 186.08 201.254 186.793 202.211C187.516 203.168 187.966 204.126 188.141 205.083C188.317 206.04 188.249 206.939 187.936 207.769C187.614 208.599 187.067 209.312 186.295 209.889C185.69 210.348 185.035 210.651 184.351 210.797C183.658 210.944 182.984 210.934 182.3 210.748C181.626 210.563 180.991 210.211 180.415 209.674L180.405 209.684Z" fill="url(#paint28_linear_5_88)"/>
  <path d="M168.765 214.294C168.15 213.268 167.808 212.262 167.73 211.295C167.652 210.328 167.818 209.439 168.228 208.648C168.638 207.857 169.254 207.212 170.084 206.714C170.914 206.216 171.784 205.981 172.673 206.001C173.562 206.02 174.421 206.294 175.232 206.821C176.053 207.349 176.766 208.13 177.381 209.156C177.996 210.181 178.338 211.188 178.417 212.155C178.495 213.131 178.329 214.011 177.918 214.802C177.508 215.593 176.893 216.238 176.062 216.736C175.232 217.234 174.363 217.468 173.474 217.449C172.585 217.429 171.725 217.156 170.914 216.628C170.094 216.101 169.381 215.319 168.765 214.294ZM169.908 213.61C170.406 214.46 170.973 215.085 171.608 215.495C172.233 215.906 172.878 216.12 173.532 216.14C174.187 216.15 174.812 215.984 175.408 215.632C175.994 215.28 176.443 214.812 176.746 214.225C177.049 213.639 177.166 212.975 177.098 212.223C177.029 211.471 176.746 210.68 176.248 209.83C175.74 208.98 175.183 208.355 174.548 207.935C173.923 207.524 173.278 207.31 172.624 207.29C171.969 207.28 171.344 207.446 170.748 207.798C170.152 208.15 169.713 208.619 169.41 209.205C169.107 209.791 168.99 210.455 169.058 211.207C169.127 211.959 169.41 212.75 169.908 213.6V213.61Z" fill="url(#paint29_linear_5_88)"/>
  <path d="M168.676 220.77L167.172 221.435L159.836 214.362L159.719 214.411L159.992 224.599L158.488 225.264L153.906 214.861L155.088 214.343L158.576 222.245L158.673 222.196L158.439 212.858L159.572 212.36L166.303 218.826L166.4 218.787L162.913 210.885L164.095 210.367L168.676 220.77Z" fill="url(#paint30_linear_5_88)"/>
  <path d="M151.198 215.759L154.578 226.612L150.915 227.755C150.065 228.018 149.323 228.087 148.678 227.95C148.043 227.813 147.506 227.53 147.086 227.09C146.666 226.651 146.353 226.114 146.148 225.479C145.953 224.834 145.894 224.219 145.992 223.613C146.089 223.007 146.363 222.47 146.803 221.991C147.252 221.513 147.887 221.142 148.737 220.878L151.11 220.135L149.88 216.17L151.189 215.759H151.198ZM151.482 221.298L149.147 222.021C148.278 222.294 147.721 222.704 147.486 223.261C147.252 223.818 147.242 224.414 147.437 225.068C147.643 225.723 147.994 226.201 148.502 226.524C149.01 226.846 149.704 226.856 150.583 226.582L152.898 225.86L151.482 221.298Z" fill="url(#paint31_linear_5_88)"/>
  <path d="M142.575 218.357L143.981 218.045L142.35 230.04L140.963 230.343L134.438 220.145L135.844 219.832L137.651 222.734L142.135 221.747L142.555 218.357H142.575ZM141.989 223.036L138.345 223.837L141.227 228.458L141.315 228.438L141.989 223.036Z" fill="url(#paint32_linear_5_88)"/>
  <path d="M125.264 232.687L123.984 221.395L125.303 221.249L132.464 229.415H132.571L131.565 220.536L132.932 220.379L134.212 231.671L132.884 231.818L125.704 223.632H125.596L126.602 232.531L125.254 232.687H125.264Z" fill="url(#paint33_linear_5_88)"/>
  <path d="M122.622 232.844L121.049 232.873L117.816 227.618H117.679L114.612 232.98L113.039 233.01L117.034 226.26L116.956 221.581L118.334 221.562L118.412 226.24L122.622 232.854V232.844Z" fill="url(#paint34_linear_5_88)"/>
  <path d="M107.044 221.21L105.647 232.492L101.837 232.023C100.948 231.916 100.245 231.662 99.727 231.281C99.1995 230.89 98.8381 230.412 98.6329 229.835C98.4278 229.259 98.3692 228.644 98.4473 227.979C98.5255 227.315 98.7404 226.729 99.0725 226.221C99.4046 225.713 99.8833 225.332 100.479 225.078C101.085 224.824 101.817 224.756 102.697 224.863L105.168 225.166L105.676 221.044L107.044 221.21ZM105.022 226.377L102.599 226.075C101.69 225.967 101.016 226.114 100.577 226.514C100.137 226.924 99.8735 227.462 99.7954 228.136C99.7075 228.819 99.8345 229.406 100.167 229.894C100.499 230.382 101.124 230.695 102.042 230.802L104.445 231.095L105.031 226.358L105.022 226.377Z" fill="url(#paint35_linear_5_88)"/>
  <path d="M97.4448 219.901L95.0125 231.007L91.2613 230.187C90.3919 229.991 89.7179 229.689 89.2197 229.278C88.7313 228.858 88.4089 228.37 88.2526 227.794C88.0963 227.217 88.0963 226.612 88.2331 225.957C88.3991 225.225 88.702 224.609 89.1611 224.14C89.6202 223.662 90.2259 223.388 90.9878 223.3L89.4834 218.162L91.0464 218.504L92.4336 223.359C92.5215 223.378 92.6192 223.398 92.7168 223.417L95.1492 223.945L96.0968 219.608L97.4448 219.901ZM94.8855 225.156L92.5019 224.629C91.613 224.433 90.939 224.482 90.4701 224.785C90.0109 225.088 89.6983 225.566 89.5518 226.231C89.4053 226.895 89.4737 227.481 89.7667 227.96C90.0598 228.448 90.6557 228.79 91.5544 228.985L93.9184 229.503L94.8757 225.146L94.8855 225.156Z" fill="url(#paint36_linear_5_88)"/>
  <path d="M77.0553 220.136C77.4265 218.993 77.9638 218.084 78.6476 217.391C79.3314 216.697 80.1031 216.248 80.9725 216.033C81.8419 215.818 82.7309 215.867 83.6491 216.17C84.5674 216.472 85.3196 216.971 85.8861 217.654C86.4527 218.338 86.8044 219.168 86.9509 220.126C87.0877 221.093 86.9704 222.138 86.5992 223.281C86.228 224.424 85.6908 225.332 85.007 226.026C84.3232 226.719 83.5514 227.169 82.682 227.383C81.8126 227.598 80.9237 227.55 80.0054 227.247C79.0872 226.944 78.335 226.446 77.7684 225.762C77.2019 225.078 76.8502 224.248 76.7037 223.291C76.5669 222.324 76.6841 221.278 77.0553 220.136ZM78.3155 220.556C78.0127 221.493 77.9052 222.333 78.0029 223.076C78.1006 223.818 78.3643 224.443 78.7844 224.951C79.2044 225.459 79.7417 225.811 80.3962 226.035C81.0507 226.26 81.6954 226.28 82.3304 226.123C82.9653 225.967 83.5514 225.615 84.0692 225.078C84.5869 224.541 85.007 223.799 85.3195 222.861C85.6224 221.923 85.7298 221.083 85.6322 220.341C85.5345 219.598 85.2707 218.973 84.8507 218.465C84.4306 217.957 83.8933 217.606 83.2388 217.381C82.5844 217.166 81.9396 217.137 81.3047 217.293C80.6697 217.449 80.0836 217.801 79.5659 218.338C79.0384 218.875 78.6281 219.618 78.3155 220.556Z" fill="url(#paint37_linear_5_88)"/>
  <path d="M76.9583 213.923L72.3573 224.316L66.125 221.562L66.6232 220.448L71.5954 222.646L73.1486 219.129L68.6453 217.137L69.1435 216.023L73.6468 218.016L75.708 213.366L76.9681 213.923H76.9583Z" fill="url(#paint38_linear_5_88)"/>
  <path d="M62.3203 219.589L67.5563 209.498L68.7773 210.133L63.5414 220.223L62.3203 219.589Z" fill="url(#paint39_linear_5_88)"/>
  <path d="M65.256 208.296L59.4242 218.055L58.2422 217.351L63.4488 208.648L58.9162 205.932L59.5414 204.887L65.256 208.306V208.296Z" fill="url(#paint40_linear_5_88)"/>
  <path d="M57.9353 203.803L51.3025 213.034L45.7344 209.029L46.4475 208.032L50.902 211.236L53.139 208.12L48.9775 205.131L49.6906 204.135L53.8521 207.124L56.1086 203.988L51.5858 200.736L52.2989 199.749L57.9451 203.803H57.9353Z" fill="url(#paint41_linear_5_88)"/>
  <path d="M23.5536 180.76L24.3839 181.854C24.0322 182.264 23.8075 182.694 23.7099 183.163C23.6122 183.632 23.6219 184.101 23.7489 184.56C23.8759 185.019 24.0811 185.458 24.3839 185.859C24.8039 186.406 25.3119 186.797 25.9273 187.031C26.5427 187.266 27.2168 187.305 27.9494 187.158C28.6821 187.012 29.444 186.64 30.2353 186.045C31.0167 185.449 31.5833 184.824 31.9252 184.15C32.2671 183.476 32.4039 182.821 32.3453 182.167C32.2867 181.512 32.0522 180.907 31.6322 180.36C31.3293 179.959 30.9679 179.637 30.5576 179.392C30.1376 179.148 29.698 179.011 29.2193 178.982C28.7407 178.953 28.262 179.051 27.7736 179.275L26.9432 178.181C27.6466 177.82 28.3499 177.654 29.0533 177.663C29.7566 177.673 30.4209 177.849 31.0363 178.181C31.6615 178.513 32.1987 178.982 32.6579 179.588C33.244 180.36 33.5761 181.19 33.6543 182.079C33.7324 182.968 33.5566 183.847 33.117 184.716C32.6872 185.585 31.9838 186.386 31.0363 187.109C30.079 187.832 29.1216 188.291 28.1643 188.467C27.207 188.653 26.3083 188.584 25.478 188.262C24.6476 187.94 23.9345 187.402 23.3484 186.631C22.8893 186.025 22.5767 185.371 22.4302 184.687C22.2836 184.003 22.2934 183.319 22.4692 182.635C22.6451 181.952 23.0065 181.327 23.5438 180.74L23.5536 180.76Z" fill="url(#paint42_linear_5_88)"/>
  <path d="M18.9044 169.126C19.9301 168.511 20.9362 168.159 21.9033 168.081C22.8704 168.003 23.7594 168.169 24.5506 168.569C25.3419 168.97 25.9964 169.585 26.4946 170.425C26.9928 171.265 27.237 172.115 27.2174 173.004C27.1979 173.893 26.9244 174.752 26.4066 175.573C25.8889 176.394 25.1074 177.116 24.072 177.732C23.0365 178.347 22.0401 178.699 21.073 178.777C20.1059 178.855 19.217 178.689 18.4257 178.289C17.6345 177.888 16.98 177.273 16.4818 176.433C15.9836 175.602 15.7394 174.743 15.7589 173.854C15.7784 172.965 16.052 172.105 16.5697 171.285C17.0972 170.464 17.8689 169.741 18.9044 169.126ZM19.5882 170.269C18.7481 170.777 18.1131 171.343 17.7028 171.978C17.2926 172.603 17.0777 173.248 17.0679 173.903C17.0581 174.557 17.2242 175.182 17.5856 175.768C17.9373 176.354 18.4062 176.804 18.9923 177.097C19.5784 177.4 20.2427 177.507 20.9949 177.439C21.747 177.37 22.5383 177.087 23.3882 176.579C24.2283 176.071 24.8632 175.505 25.2735 174.87C25.6838 174.245 25.8987 173.6 25.9084 172.945C25.9182 172.291 25.7521 171.666 25.3907 171.08C25.039 170.494 24.5702 170.044 23.984 169.751C23.3979 169.448 22.7337 169.341 21.9815 169.409C21.2293 169.478 20.438 169.761 19.5882 170.269Z" fill="url(#paint43_linear_5_88)"/>
  <path d="M12.4291 169.067L11.7648 167.563L18.8177 160.198L18.7591 160.081L8.57051 160.393L7.90625 158.889L18.2902 154.269L18.8177 155.441L10.9247 158.957L10.9736 159.055L20.3123 158.791L20.8203 159.924L14.373 166.684L14.4219 166.782L22.3149 163.265L22.8424 164.437L12.4584 169.058L12.4291 169.067Z" fill="url(#paint44_linear_5_88)"/>
  <path d="M17.3722 151.583L6.52911 155.001L5.37642 151.338C5.11267 150.489 5.04429 149.746 5.17128 149.101C5.30804 148.466 5.59133 147.929 6.03092 147.509C6.4705 147.079 7.00778 146.767 7.64273 146.571C8.27769 146.366 8.90288 146.318 9.50853 146.415C10.1142 146.513 10.6515 146.777 11.1301 147.216C11.6088 147.656 11.98 148.3 12.2535 149.14L13.0057 151.514L16.962 150.264L17.3722 151.573V151.583ZM11.8334 151.885L11.1008 149.561C10.8273 148.691 10.4072 148.134 9.8602 147.91C9.30339 147.675 8.70751 147.666 8.05301 147.871C7.39852 148.076 6.91986 148.437 6.60726 148.935C6.29467 149.443 6.27513 150.137 6.55842 151.016L7.29106 153.321L11.8432 151.885H11.8334Z" fill="url(#paint45_linear_5_88)"/>
  <path d="M14.7321 142.947L15.0447 144.354L3.03916 142.772L2.72656 141.385L12.9054 134.82L13.218 136.227L10.3265 138.044L11.3327 142.527L14.7224 142.938L14.7321 142.947ZM10.053 142.381L9.23243 138.737L4.63143 141.638L4.65097 141.726L10.053 142.381Z" fill="url(#paint46_linear_5_88)"/>
  <path d="M0.335938 125.697L11.6284 124.378L11.7847 125.697L3.63772 132.886V132.993L12.5173 131.958L12.6736 133.326L1.38117 134.644L1.22488 133.326L9.3914 126.107V125.999L0.492235 127.045L0.335938 125.697Z" fill="url(#paint47_linear_5_88)"/>
  <path d="M0.156297 123.05L0.126991 121.477L5.38248 118.244V118.107L0.0293057 115.04L0 113.467L6.75008 117.462L11.4292 117.384L11.4488 118.761L6.76962 118.839L0.156297 123.05Z" fill="url(#paint48_linear_5_88)"/>
  <path d="M11.7516 107.44L0.468887 106.092L0.92801 102.282C1.03546 101.394 1.27968 100.69 1.66065 100.163C2.04163 99.6353 2.52029 99.2739 3.09663 99.059C3.67298 98.8538 4.2884 98.7855 4.95266 98.8636C5.61693 98.9417 6.20304 99.1469 6.72077 99.4888C7.22874 99.8209 7.61948 100.29 7.87347 100.895C8.12745 101.501 8.2056 102.234 8.09814 103.113L7.80509 105.584L11.9274 106.072L11.7614 107.44H11.7516ZM6.58401 105.438L6.87707 103.015C6.98453 102.107 6.838 101.433 6.42772 100.993C6.01744 100.553 5.4704 100.3 4.79636 100.212C4.11256 100.133 3.52645 100.251 3.03802 100.593C2.54959 100.925 2.24677 101.55 2.12954 102.468L1.84626 104.871L6.58401 105.438Z" fill="url(#paint49_linear_5_88)"/>
  <path d="M13.0229 97.8281L1.90625 95.4349L2.71704 91.6839C2.90264 90.8146 3.20547 90.1308 3.61575 89.6424C4.02603 89.154 4.52423 88.8219 5.0908 88.6656C5.65738 88.5093 6.2728 88.4995 6.9273 88.646C7.66971 88.8023 8.27536 89.1149 8.74425 89.5643C9.22291 90.0234 9.5062 90.629 9.59412 91.3909L14.7226 89.8671L14.3905 91.43L9.53551 92.8366C9.51597 92.9245 9.49643 93.0222 9.47689 93.1199L8.94939 95.5521L13.2866 96.4899L12.9936 97.8379L13.0229 97.8281ZM7.75762 95.2884L8.27536 92.905C8.47073 92.0161 8.41212 91.3421 8.10929 90.8732C7.80647 90.4141 7.32781 90.1113 6.65378 89.9647C5.97974 89.8182 5.4034 89.8964 4.92474 90.1894C4.44608 90.4825 4.10418 91.0783 3.90881 91.9868L3.40084 94.3506L7.76739 95.2884H7.75762Z" fill="url(#paint50_linear_5_88)"/>
  <path d="M12.7081 77.4617C13.8511 77.8329 14.7693 78.3604 15.4629 79.0442C16.1565 79.728 16.6156 80.4996 16.8305 81.3592C17.0454 82.2188 17.0063 83.1175 16.7035 84.0357C16.4007 84.9539 15.9122 85.7061 15.2284 86.2726C14.5446 86.8392 13.7241 87.2006 12.757 87.3471C11.7899 87.4936 10.7447 87.3764 9.60174 87.0052C8.45882 86.634 7.54057 86.1066 6.847 85.4228C6.15344 84.739 5.69431 83.9673 5.4794 83.1077C5.26449 82.2481 5.30357 81.3495 5.60639 80.4313C5.90922 79.5131 6.39765 78.7609 7.08145 78.1944C7.76525 77.6278 8.58581 77.2664 9.5529 77.1199C10.52 76.9733 11.5652 77.0906 12.7081 77.4617ZM12.2979 78.7316C11.3601 78.4288 10.52 78.3213 9.77758 78.4288C9.03516 78.5265 8.40998 78.7902 7.90201 79.2102C7.40381 79.6303 7.04237 80.1675 6.82747 80.822C6.61256 81.4765 6.58325 82.1212 6.74932 82.7561C6.90561 83.391 7.25728 83.9771 7.80432 84.4948C8.35136 85.0125 9.08401 85.4326 10.0218 85.7354C10.9596 86.0382 11.7997 86.1456 12.5421 86.0382C13.2845 85.9307 13.9097 85.6768 14.4176 85.2567C14.9256 84.8367 15.2773 84.2995 15.4922 83.645C15.7071 82.9905 15.7364 82.3458 15.5703 81.7109C15.414 81.076 15.0624 80.4996 14.5153 79.9722C13.9683 79.4447 13.2357 79.0344 12.2979 78.7316Z" fill="url(#paint51_linear_5_88)"/>
  <path d="M18.9211 77.3343L8.50781 72.7726L11.243 66.5308L12.3664 67.0192L10.188 72.0009L13.7047 73.5443L15.6779 69.0314L16.8013 69.5198L14.8281 74.0327L19.4877 76.0743L18.9406 77.3343H18.9211Z" fill="url(#paint52_linear_5_88)"/>
  <path d="M13.2033 62.7212L23.3138 67.9179L22.6886 69.1389L12.5781 63.9422L13.2033 62.7212Z" fill="url(#paint53_linear_5_88)"/>
  <path d="M24.5127 65.6029L14.7344 59.8104L15.4377 58.6284L24.1708 63.8055L26.8669 59.2633L27.9219 59.8885L24.5225 65.6224L24.5127 65.6029Z" fill="url(#paint54_linear_5_88)"/>
  <path d="M28.9715 58.2771L19.7109 51.6836L23.6965 46.0962L24.6929 46.8093L21.5084 51.2733L24.6343 53.5005L27.6137 49.3295L28.6101 50.0425L25.6307 54.2135L28.7762 56.4602L32.0096 51.918L33.006 52.6311L28.9715 58.2869V58.2771Z" fill="url(#paint55_linear_5_88)"/>
  <defs>
    <linearGradient id="paint0_linear_5_88" x1="45.4331" y1="27.2729" x2="56.3153" y2="27.2729" gradientUnits="userSpaceOnUse">
      <stop stop-color="#9D3386"/>
      <stop offset="1" stop-color="#423B7E"/>
    </linearGradient>
    <linearGradient id="paint1_linear_5_88" x1="55.2937" y1="20.855" x2="66" y2="20.855" gradientUnits="userSpaceOnUse">
      <stop stop-color="#9D3386"/>
      <stop offset="1" stop-color="#423B7E"/>
    </linearGradient>
    <linearGradient id="paint2_linear_5_88" x1="65.1173" y1="14.8476" x2="79.8581" y2="14.8476" gradientUnits="userSpaceOnUse">
      <stop stop-color="#9D3386"/>
      <stop offset="1" stop-color="#423B7E"/>
    </linearGradient>
    <linearGradient id="paint3_linear_5_88" x1="79.2441" y1="10.8624" x2="87.8503" y2="10.8624" gradientUnits="userSpaceOnUse">
      <stop stop-color="#9D3386"/>
      <stop offset="1" stop-color="#423B7E"/>
    </linearGradient>
    <linearGradient id="paint4_linear_5_88" x1="89.7793" y1="8.6056" x2="99.333" y2="8.6056" gradientUnits="userSpaceOnUse">
      <stop stop-color="#9D3386"/>
      <stop offset="1" stop-color="#423B7E"/>
    </linearGradient>
    <linearGradient id="paint5_linear_5_88" x1="99.6172" y1="6.37855" x2="109.776" y2="6.37855" gradientUnits="userSpaceOnUse">
      <stop stop-color="#9D3386"/>
      <stop offset="1" stop-color="#423B7E"/>
    </linearGradient>
    <linearGradient id="paint6_linear_5_88" x1="111.141" y1="5.72414" x2="120.724" y2="5.72414" gradientUnits="userSpaceOnUse">
      <stop stop-color="#9D3386"/>
      <stop offset="1" stop-color="#423B7E"/>
    </linearGradient>
    <linearGradient id="paint7_linear_5_88" x1="126.734" y1="6.32962" x2="135.419" y2="6.32962" gradientUnits="userSpaceOnUse">
      <stop stop-color="#9D3386"/>
      <stop offset="1" stop-color="#423B7E"/>
    </linearGradient>
    <linearGradient id="paint8_linear_5_88" x1="136.322" y1="8.60568" x2="145.69" y2="8.60568" gradientUnits="userSpaceOnUse">
      <stop stop-color="#9D3386"/>
      <stop offset="1" stop-color="#423B7E"/>
    </linearGradient>
    <linearGradient id="paint9_linear_5_88" x1="146.751" y1="11.5558" x2="157.115" y2="11.5558" gradientUnits="userSpaceOnUse">
      <stop stop-color="#9D3386"/>
      <stop offset="1" stop-color="#423B7E"/>
    </linearGradient>
    <linearGradient id="paint10_linear_5_88" x1="156.773" y1="14.4863" x2="167.665" y2="14.4863" gradientUnits="userSpaceOnUse">
      <stop stop-color="#9D3386"/>
      <stop offset="1" stop-color="#423B7E"/>
    </linearGradient>
    <linearGradient id="paint11_linear_5_88" x1="164.924" y1="18.54" x2="171.449" y2="18.54" gradientUnits="userSpaceOnUse">
      <stop stop-color="#9D3386"/>
      <stop offset="1" stop-color="#423B7E"/>
    </linearGradient>
    <linearGradient id="paint12_linear_5_88" x1="168.432" y1="21.9783" x2="175.514" y2="21.9783" gradientUnits="userSpaceOnUse">
      <stop stop-color="#9D3386"/>
      <stop offset="1" stop-color="#423B7E"/>
    </linearGradient>
    <linearGradient id="paint13_linear_5_88" x1="175.705" y1="27.0969" x2="187.955" y2="27.0969" gradientUnits="userSpaceOnUse">
      <stop stop-color="#9D3386"/>
      <stop offset="1" stop-color="#423B7E"/>
    </linearGradient>
    <linearGradient id="paint14_linear_5_88" x1="199.795" y1="50.5501" x2="211.156" y2="50.5501" gradientUnits="userSpaceOnUse">
      <stop stop-color="#9D3386"/>
      <stop offset="1" stop-color="#423B7E"/>
    </linearGradient>
    <linearGradient id="paint15_linear_5_88" x1="206.204" y1="60.2893" x2="217.673" y2="60.2893" gradientUnits="userSpaceOnUse">
      <stop stop-color="#9D3386"/>
      <stop offset="1" stop-color="#423B7E"/>
    </linearGradient>
    <linearGradient id="paint16_linear_5_88" x1="210.553" y1="72.1084" x2="225.421" y2="72.1084" gradientUnits="userSpaceOnUse">
      <stop stop-color="#9D3386"/>
      <stop offset="1" stop-color="#423B7E"/>
    </linearGradient>
    <linearGradient id="paint17_linear_5_88" x1="215.893" y1="83.1466" x2="228.142" y2="83.1466" gradientUnits="userSpaceOnUse">
      <stop stop-color="#9D3386"/>
      <stop offset="1" stop-color="#423B7E"/>
    </linearGradient>
    <linearGradient id="paint18_linear_5_88" x1="218.148" y1="94.1653" x2="230.437" y2="94.1653" gradientUnits="userSpaceOnUse">
      <stop stop-color="#9D3386"/>
      <stop offset="1" stop-color="#423B7E"/>
    </linearGradient>
    <linearGradient id="paint19_linear_5_88" x1="220.436" y1="104.314" x2="232.724" y2="104.314" gradientUnits="userSpaceOnUse">
      <stop stop-color="#9D3386"/>
      <stop offset="1" stop-color="#423B7E"/>
    </linearGradient>
    <linearGradient id="paint20_linear_5_88" x1="221.553" y1="115.509" x2="233.002" y2="115.509" gradientUnits="userSpaceOnUse">
      <stop stop-color="#9D3386"/>
      <stop offset="1" stop-color="#423B7E"/>
    </linearGradient>
    <linearGradient id="paint21_linear_5_88" x1="220.994" y1="130.678" x2="232.443" y2="130.678" gradientUnits="userSpaceOnUse">
      <stop stop-color="#9D3386"/>
      <stop offset="1" stop-color="#423B7E"/>
    </linearGradient>
    <linearGradient id="paint22_linear_5_88" x1="218.053" y1="140.613" x2="230.928" y2="140.613" gradientUnits="userSpaceOnUse">
      <stop stop-color="#9D3386"/>
      <stop offset="1" stop-color="#423B7E"/>
    </linearGradient>
    <linearGradient id="paint23_linear_5_88" x1="215.768" y1="151.553" x2="227.392" y2="151.553" gradientUnits="userSpaceOnUse">
      <stop stop-color="#9D3386"/>
      <stop offset="1" stop-color="#423B7E"/>
    </linearGradient>
    <linearGradient id="paint24_linear_5_88" x1="213.205" y1="161.839" x2="224.146" y2="161.839" gradientUnits="userSpaceOnUse">
      <stop stop-color="#9D3386"/>
      <stop offset="1" stop-color="#423B7E"/>
    </linearGradient>
    <linearGradient id="paint25_linear_5_88" x1="209.314" y1="167.817" x2="220.021" y2="167.817" gradientUnits="userSpaceOnUse">
      <stop stop-color="#9D3386"/>
      <stop offset="1" stop-color="#423B7E"/>
    </linearGradient>
    <linearGradient id="paint26_linear_5_88" x1="204.648" y1="171.617" x2="217.826" y2="171.617" gradientUnits="userSpaceOnUse">
      <stop stop-color="#9D3386"/>
      <stop offset="1" stop-color="#423B7E"/>
    </linearGradient>
    <linearGradient id="paint27_linear_5_88" x1="199.5" y1="181.502" x2="212.785" y2="181.502" gradientUnits="userSpaceOnUse">
      <stop stop-color="#9D3386"/>
      <stop offset="1" stop-color="#423B7E"/>
    </linearGradient>
    <linearGradient id="paint28_linear_5_88" x1="177.337" y1="205.229" x2="188.239" y2="205.229" gradientUnits="userSpaceOnUse">
      <stop stop-color="#9D3386"/>
      <stop offset="1" stop-color="#423B7E"/>
    </linearGradient>
    <linearGradient id="paint29_linear_5_88" x1="167.71" y1="211.725" x2="178.436" y2="211.725" gradientUnits="userSpaceOnUse">
      <stop stop-color="#9D3386"/>
      <stop offset="1" stop-color="#423B7E"/>
    </linearGradient>
    <linearGradient id="paint30_linear_5_88" x1="153.887" y1="217.82" x2="168.676" y2="217.82" gradientUnits="userSpaceOnUse">
      <stop stop-color="#9D3386"/>
      <stop offset="1" stop-color="#423B7E"/>
    </linearGradient>
    <linearGradient id="paint31_linear_5_88" x1="145.953" y1="221.894" x2="154.578" y2="221.894" gradientUnits="userSpaceOnUse">
      <stop stop-color="#9D3386"/>
      <stop offset="1" stop-color="#423B7E"/>
    </linearGradient>
    <linearGradient id="paint32_linear_5_88" x1="134.438" y1="224.199" x2="143.981" y2="224.199" gradientUnits="userSpaceOnUse">
      <stop stop-color="#9D3386"/>
      <stop offset="1" stop-color="#423B7E"/>
    </linearGradient>
    <linearGradient id="paint33_linear_5_88" x1="123.984" y1="226.533" x2="134.222" y2="226.533" gradientUnits="userSpaceOnUse">
      <stop stop-color="#9D3386"/>
      <stop offset="1" stop-color="#423B7E"/>
    </linearGradient>
    <linearGradient id="paint34_linear_5_88" x1="113.029" y1="227.276" x2="122.622" y2="227.276" gradientUnits="userSpaceOnUse">
      <stop stop-color="#9D3386"/>
      <stop offset="1" stop-color="#423B7E"/>
    </linearGradient>
    <linearGradient id="paint35_linear_5_88" x1="98.4083" y1="226.758" x2="107.044" y2="226.758" gradientUnits="userSpaceOnUse">
      <stop stop-color="#9D3386"/>
      <stop offset="1" stop-color="#423B7E"/>
    </linearGradient>
    <linearGradient id="paint36_linear_5_88" x1="88.1256" y1="224.58" x2="97.4448" y2="224.58" gradientUnits="userSpaceOnUse">
      <stop stop-color="#9D3386"/>
      <stop offset="1" stop-color="#423B7E"/>
    </linearGradient>
    <linearGradient id="paint37_linear_5_88" x1="76.6451" y1="221.708" x2="86.9997" y2="221.708" gradientUnits="userSpaceOnUse">
      <stop stop-color="#9D3386"/>
      <stop offset="1" stop-color="#423B7E"/>
    </linearGradient>
    <linearGradient id="paint38_linear_5_88" x1="66.125" y1="218.846" x2="76.9583" y2="218.846" gradientUnits="userSpaceOnUse">
      <stop stop-color="#9D3386"/>
      <stop offset="1" stop-color="#423B7E"/>
    </linearGradient>
    <linearGradient id="paint39_linear_5_88" x1="62.3203" y1="214.861" x2="68.7773" y2="214.861" gradientUnits="userSpaceOnUse">
      <stop stop-color="#9D3386"/>
      <stop offset="1" stop-color="#423B7E"/>
    </linearGradient>
    <linearGradient id="paint40_linear_5_88" x1="58.2422" y1="211.461" x2="65.256" y2="211.461" gradientUnits="userSpaceOnUse">
      <stop stop-color="#9D3386"/>
      <stop offset="1" stop-color="#423B7E"/>
    </linearGradient>
    <linearGradient id="paint41_linear_5_88" x1="45.7344" y1="206.391" x2="57.9353" y2="206.391" gradientUnits="userSpaceOnUse">
      <stop stop-color="#9D3386"/>
      <stop offset="1" stop-color="#423B7E"/>
    </linearGradient>
    <linearGradient id="paint42_linear_5_88" x1="22.3423" y1="183.124" x2="33.6836" y2="183.124" gradientUnits="userSpaceOnUse">
      <stop stop-color="#9D3386"/>
      <stop offset="1" stop-color="#423B7E"/>
    </linearGradient>
    <linearGradient id="paint43_linear_5_88" x1="15.7589" y1="173.434" x2="27.2174" y2="173.434" gradientUnits="userSpaceOnUse">
      <stop stop-color="#9D3386"/>
      <stop offset="1" stop-color="#423B7E"/>
    </linearGradient>
    <linearGradient id="paint44_linear_5_88" x1="7.89648" y1="161.663" x2="22.8131" y2="161.663" gradientUnits="userSpaceOnUse">
      <stop stop-color="#9D3386"/>
      <stop offset="1" stop-color="#423B7E"/>
    </linearGradient>
    <linearGradient id="paint45_linear_5_88" x1="5.1029" y1="150.694" x2="17.3722" y2="150.694" gradientUnits="userSpaceOnUse">
      <stop stop-color="#9D3386"/>
      <stop offset="1" stop-color="#423B7E"/>
    </linearGradient>
    <linearGradient id="paint46_linear_5_88" x1="2.73633" y1="139.597" x2="15.0447" y2="139.597" gradientUnits="userSpaceOnUse">
      <stop stop-color="#9D3386"/>
      <stop offset="1" stop-color="#423B7E"/>
    </linearGradient>
    <linearGradient id="paint47_linear_5_88" x1="0.335938" y1="129.516" x2="12.6834" y2="129.516" gradientUnits="userSpaceOnUse">
      <stop stop-color="#9D3386"/>
      <stop offset="1" stop-color="#423B7E"/>
    </linearGradient>
    <linearGradient id="paint48_linear_5_88" x1="0" y1="118.253" x2="11.4585" y2="118.253" gradientUnits="userSpaceOnUse">
      <stop stop-color="#9D3386"/>
      <stop offset="1" stop-color="#423B7E"/>
    </linearGradient>
    <linearGradient id="paint49_linear_5_88" x1="0.468887" y1="103.142" x2="11.9177" y2="103.142" gradientUnits="userSpaceOnUse">
      <stop stop-color="#9D3386"/>
      <stop offset="1" stop-color="#423B7E"/>
    </linearGradient>
    <linearGradient id="paint50_linear_5_88" x1="1.91602" y1="93.1785" x2="14.7422" y2="93.1785" gradientUnits="userSpaceOnUse">
      <stop stop-color="#9D3386"/>
      <stop offset="1" stop-color="#423B7E"/>
    </linearGradient>
    <linearGradient id="paint51_linear_5_88" x1="5.34264" y1="82.2384" x2="16.9672" y2="82.2384" gradientUnits="userSpaceOnUse">
      <stop stop-color="#9D3386"/>
      <stop offset="1" stop-color="#423B7E"/>
    </linearGradient>
    <linearGradient id="paint52_linear_5_88" x1="8.50781" y1="71.9326" x2="19.4779" y2="71.9326" gradientUnits="userSpaceOnUse">
      <stop stop-color="#9D3386"/>
      <stop offset="1" stop-color="#423B7E"/>
    </linearGradient>
    <linearGradient id="paint53_linear_5_88" x1="12.5684" y1="65.9349" x2="23.3138" y2="65.9349" gradientUnits="userSpaceOnUse">
      <stop stop-color="#9D3386"/>
      <stop offset="1" stop-color="#423B7E"/>
    </linearGradient>
    <linearGradient id="paint54_linear_5_88" x1="14.7344" y1="62.1157" x2="27.9122" y2="62.1157" gradientUnits="userSpaceOnUse">
      <stop stop-color="#9D3386"/>
      <stop offset="1" stop-color="#423B7E"/>
    </linearGradient>
    <linearGradient id="paint55_linear_5_88" x1="19.7109" y1="52.1818" x2="33.006" y2="52.1818" gradientUnits="userSpaceOnUse">
      <stop stop-color="#9D3386"/>
      <stop offset="1" stop-color="#423B7E"/>
    </linearGradient>
  </defs>
</svg>
