<svg width="128" height="172" viewBox="0 0 128 172" fill="none" xmlns="http://www.w3.org/2000/svg">
<path d="M100.38 113.559L117.374 109.579C118.203 109.373 118.952 109.09 119.592 108.717C120.076 108.438 120.498 108.104 120.847 107.716C120.97 107.579 121.079 107.43 121.181 107.278C121.188 107.263 121.203 107.252 121.21 107.238C121.218 107.227 121.221 107.216 121.228 107.205C121.272 107.136 121.312 107.06 121.352 106.988C121.37 106.955 121.392 106.919 121.41 106.886C121.465 106.778 121.516 106.665 121.556 106.553C123.29 101.964 125.028 97.3755 126.762 92.7868C126.719 92.8992 126.668 93.0116 126.613 93.1203C126.595 93.1565 126.573 93.1928 126.555 93.2254C126.515 93.2979 126.479 93.3668 126.435 93.4356C126.421 93.461 126.402 93.4864 126.384 93.5117C126.282 93.664 126.173 93.8126 126.05 93.9503C125.704 94.3381 125.279 94.668 124.795 94.9507C124.155 95.324 123.406 95.6104 122.577 95.8133L100.329 101.265" stroke="black" stroke-width="2"/>
<path d="M118.385 150.711C118.301 150.856 118.207 150.99 118.112 151.127C118.054 151.211 117.996 151.294 117.93 151.374C117.858 151.468 117.778 151.559 117.698 151.653C117.629 151.729 117.563 151.809 117.487 151.881C117.4 151.968 117.309 152.055 117.214 152.139C117.138 152.208 117.062 152.28 116.978 152.349C116.88 152.432 116.774 152.508 116.669 152.588C116.585 152.65 116.502 152.715 116.411 152.777C116.298 152.853 116.178 152.922 116.058 152.994C115.967 153.048 115.88 153.106 115.785 153.157C115.654 153.23 115.516 153.291 115.378 153.357C115.284 153.4 115.196 153.447 115.098 153.487C114.942 153.556 114.775 153.614 114.607 153.675C114.524 153.704 114.444 153.741 114.36 153.77C114.106 153.853 113.84 153.929 113.567 153.994L104.699 156.118C104.496 156.166 104.296 156.209 104.089 156.245C104.023 156.256 103.954 156.267 103.889 156.278C103.75 156.3 103.609 156.321 103.47 156.34C103.39 156.35 103.31 156.358 103.227 156.365C103.1 156.379 102.972 156.39 102.841 156.398C102.754 156.401 102.667 156.405 102.58 156.408C102.456 156.412 102.332 156.419 102.209 156.419C102.118 156.419 102.031 156.419 101.94 156.419C101.816 156.419 101.696 156.416 101.573 156.408C101.482 156.405 101.391 156.398 101.296 156.394C101.176 156.387 101.056 156.376 100.936 156.365C100.845 156.358 100.751 156.347 100.66 156.336C100.54 156.321 100.42 156.307 100.3 156.289C100.209 156.274 100.118 156.263 100.027 156.249C99.8418 156.216 99.6564 156.184 99.471 156.147C99.2419 156.097 99.0128 156.042 98.7874 155.981C98.7074 155.959 98.6311 155.934 98.5511 155.912C98.402 155.868 98.2566 155.825 98.1111 155.778C98.0202 155.749 97.9293 155.716 97.8384 155.683C97.7075 155.636 97.573 155.589 97.4458 155.538C97.3512 155.502 97.2603 155.462 97.1658 155.422C97.0422 155.368 96.9186 155.317 96.7949 155.259C96.6859 155.209 96.5804 155.158 96.4713 155.104C96.395 155.067 96.3223 155.027 96.2495 154.991C96.1332 154.93 96.0205 154.868 95.9078 154.803C95.8387 154.763 95.766 154.723 95.6969 154.683C95.5769 154.611 95.4569 154.534 95.3369 154.455C95.2788 154.419 95.2206 154.382 95.166 154.342C94.9915 154.226 94.8243 154.103 94.657 153.976C93.7299 153.262 92.9372 152.392 92.3882 151.421L69.791 111.41C69.6347 111.131 69.4201 110.891 69.1256 110.667C69.0384 110.598 68.9438 110.536 68.8457 110.475C68.8166 110.456 68.7838 110.438 68.7548 110.42C68.6784 110.377 68.5984 110.333 68.5148 110.29C68.493 110.279 68.4748 110.268 68.453 110.257C68.4421 110.25 68.4275 110.246 68.413 110.239C68.2966 110.185 68.173 110.134 68.0421 110.083C67.9185 110.04 67.7912 110 67.6604 109.963C67.6204 109.953 67.5804 109.942 67.5367 109.934C67.4422 109.909 67.3477 109.891 67.2495 109.873C67.224 109.869 67.2022 109.862 67.1804 109.858C67.1586 109.855 67.1368 109.855 67.115 109.851C66.9877 109.829 66.8605 109.815 66.7296 109.8C66.7005 109.8 66.6714 109.793 66.6459 109.793C66.4896 109.782 66.3296 109.779 66.1696 109.779C66.1296 109.779 66.0933 109.779 66.0533 109.782C65.926 109.786 65.7988 109.797 65.6715 109.808C65.6242 109.811 65.5806 109.818 65.537 109.822C65.3734 109.844 65.2097 109.873 65.0498 109.909L40.1838 116.002C39.1984 116.238 38.2458 116.339 37.2678 116.292C37.046 116.281 36.8242 116.263 36.5987 116.238C36.526 116.23 36.4569 116.216 36.3842 116.205C36.2461 116.183 36.1079 116.161 35.9697 116.136C35.7843 116.1 35.5989 116.056 35.4134 116.009C35.3262 115.987 35.2425 115.969 35.1553 115.944C34.8862 115.868 34.6208 115.777 34.3554 115.672C34.1954 115.61 34.0391 115.542 33.8827 115.466C33.8718 115.462 33.8609 115.455 33.85 115.447C33.6573 115.353 33.4682 115.252 33.2828 115.139C33.2355 115.11 33.1846 115.081 33.1374 115.052C32.9447 114.933 32.7556 114.809 32.5774 114.672C31.8611 114.128 31.2758 113.465 30.8831 112.765C30.3922 111.895 30.1777 110.986 30.185 110.087L30.5922 26.1966C30.5958 25.5768 30.6831 24.9932 30.8904 24.4495L25.6837 38.2119C25.4765 38.7556 25.3929 39.3392 25.3856 39.9626L25.0002 123.842C24.9929 124.741 25.2074 125.65 25.6983 126.52C26.091 127.22 26.6763 127.887 27.3926 128.431C27.5708 128.565 27.7598 128.691 27.9525 128.811C27.9998 128.84 28.0507 128.869 28.098 128.898C28.2834 129.007 28.4761 129.112 28.6725 129.21C28.6797 129.21 28.6834 129.217 28.6906 129.221C28.6906 129.221 28.6906 129.221 28.6979 129.221C28.8542 129.293 29.0106 129.366 29.1706 129.427C29.436 129.532 29.7014 129.623 29.9705 129.699C30.0577 129.724 30.145 129.743 30.2323 129.764C30.4141 129.811 30.5995 129.855 30.7813 129.891C30.8213 129.898 30.8613 129.913 30.9013 129.92C31.0031 129.938 31.1049 129.949 31.2067 129.964C31.2758 129.975 31.3485 129.985 31.4176 129.993C31.6394 130.018 31.8648 130.04 32.0829 130.051C33.0574 130.098 34.0136 129.996 34.9989 129.761L59.865 123.668C60.0249 123.632 60.1886 123.603 60.3485 123.581C60.3958 123.574 60.4431 123.57 60.4903 123.566C60.614 123.552 60.7376 123.545 60.8612 123.541C60.9012 123.541 60.9448 123.537 60.9885 123.537C61.1484 123.537 61.3048 123.537 61.4575 123.552C61.4902 123.552 61.5193 123.559 61.552 123.563C61.6793 123.574 61.8029 123.592 61.9265 123.61C61.9738 123.617 62.0211 123.624 62.0647 123.635C62.1629 123.653 62.2574 123.675 62.3483 123.697C62.3883 123.708 62.4319 123.715 62.4719 123.726C62.6028 123.762 62.7301 123.802 62.8537 123.845C62.9846 123.893 63.1082 123.947 63.2245 124.001C63.2609 124.019 63.2936 124.034 63.3263 124.052C63.41 124.096 63.49 124.139 63.5663 124.183C63.5954 124.201 63.6281 124.219 63.6572 124.237C63.7554 124.299 63.8536 124.364 63.9372 124.429C64.228 124.654 64.4426 124.889 64.6025 125.172L87.1998 165.183C87.7488 166.155 88.5414 167.025 89.4686 167.739C89.6322 167.866 89.8031 167.989 89.9776 168.105C90.0321 168.141 90.0903 168.177 90.1485 168.214C90.2685 168.29 90.3848 168.369 90.5084 168.442C90.5775 168.485 90.6502 168.522 90.7193 168.561C90.832 168.627 90.9447 168.688 91.0611 168.75C91.1374 168.79 91.2138 168.826 91.2865 168.866C91.352 168.899 91.4138 168.931 91.4756 168.964C91.5192 168.986 91.5592 169 91.6028 169.018C91.7265 169.076 91.8537 169.131 91.981 169.185C92.0719 169.225 92.1591 169.261 92.25 169.297C92.3846 169.352 92.5227 169.399 92.6573 169.449C92.7445 169.478 92.8281 169.511 92.9118 169.54C93.0645 169.591 93.2172 169.634 93.3735 169.681C93.4463 169.703 93.519 169.725 93.5917 169.747C93.8208 169.808 94.0498 169.866 94.2789 169.913C94.4279 169.946 94.577 169.975 94.7261 170C94.7625 170.008 94.7988 170.011 94.8352 170.019C94.9261 170.033 95.017 170.048 95.1079 170.058C95.2279 170.077 95.3478 170.091 95.4678 170.106C95.5587 170.116 95.6533 170.124 95.7442 170.135C95.8641 170.145 95.9841 170.156 96.1041 170.164C96.195 170.171 96.2859 170.174 96.3768 170.178C96.4968 170.182 96.6204 170.185 96.7404 170.189C96.8313 170.189 96.9186 170.189 97.0095 170.189C97.1331 170.189 97.2567 170.182 97.3803 170.178C97.4676 170.178 97.5548 170.171 97.6385 170.167C97.7657 170.16 97.8966 170.145 98.0239 170.135C98.1039 170.127 98.1838 170.12 98.2675 170.109C98.4093 170.091 98.5474 170.069 98.6892 170.048C98.7547 170.037 98.8238 170.029 98.8892 170.019C99.0928 169.982 99.3001 169.939 99.5 169.892L108.368 167.768C108.641 167.702 108.906 167.626 109.161 167.543C109.241 167.518 109.313 167.485 109.393 167.456C109.564 167.394 109.739 167.333 109.902 167.26C109.993 167.22 110.077 167.177 110.164 167.137C110.306 167.072 110.451 167.003 110.586 166.93C110.677 166.88 110.76 166.829 110.848 166.775C110.971 166.702 111.099 166.63 111.215 166.55C111.302 166.492 111.382 166.43 111.462 166.369C111.571 166.289 111.68 166.209 111.782 166.122C111.862 166.057 111.935 165.988 112.011 165.919C112.106 165.832 112.2 165.745 112.291 165.655C112.36 165.582 112.429 165.506 112.495 165.43C112.578 165.336 112.658 165.245 112.735 165.147C112.797 165.067 112.855 164.988 112.909 164.904C112.949 164.846 112.993 164.796 113.029 164.738C113.084 164.654 113.135 164.571 113.182 164.484C113.32 164.241 113.437 163.991 113.535 163.734C115.269 159.145 117.007 154.556 118.741 149.968C118.643 150.225 118.527 150.475 118.389 150.718L118.385 150.711Z" stroke="black" stroke-width="2" stroke-miterlimit="10"/>
<path d="M124.195 87.0528C125.115 87.7415 125.882 88.5389 126.384 89.4269H126.395C126.842 90.2134 127.056 91.0688 126.987 91.8626C126.922 92.6527 126.58 93.3704 126.064 93.9503C125.715 94.3382 125.293 94.668 124.809 94.9507C124.169 95.324 123.42 95.6067 122.591 95.8133L97.7544 101.899C96.9727 102.091 96.3619 102.446 95.9619 102.878C95.5547 103.309 95.3765 103.805 95.3765 104.251C95.3802 104.552 95.4565 104.831 95.6129 105.107L118.265 145.22C118.814 146.191 119.079 147.188 119.079 148.123C119.079 149.058 118.835 149.935 118.392 150.714C117.501 152.269 115.818 153.455 113.578 153.995L104.71 156.119C103.026 156.521 101.219 156.51 99.4851 156.14C97.7544 155.771 96.071 155.038 94.6784 153.966C93.7476 153.252 92.9586 152.382 92.4096 151.41L69.8124 111.399C69.6524 111.12 69.4379 110.881 69.147 110.656C68.8598 110.431 68.4962 110.232 68.0635 110.072C67.2055 109.761 66.1111 109.648 65.0712 109.898L40.2052 115.991C39.2198 116.227 38.2636 116.328 37.2892 116.281C36.3184 116.234 35.3294 116.042 34.3768 115.658C33.7442 115.408 33.137 115.071 32.5988 114.661C31.8826 114.121 31.2972 113.454 30.9045 112.754C30.4137 111.885 30.1991 110.975 30.2064 110.076L30.5918 26.1967C30.5991 25.5225 30.7009 24.8882 30.9481 24.3047C31.1881 23.7211 31.5844 23.1811 32.1734 22.7642C32.5625 22.4851 33.0424 22.264 33.5805 22.1372C34.115 22.0103 34.6931 21.9741 35.264 22.0176C35.8348 22.0611 36.402 22.1843 36.9365 22.3619C38.0091 22.7135 38.9653 23.2608 39.867 23.9313L124.195 87.0528Z" stroke="black" stroke-width="2"/>
<path d="M3.44039 47.7282C7.09662 45.5513 10.8327 43.5299 14.657 41.6682C17.3299 40.3654 14.989 36.3771 12.3246 37.6757C8.50027 39.5375 4.76 41.5589 1.10797 43.7358C-1.44718 45.2571 0.876834 49.258 3.44039 47.7282Z" fill="url(#paint0_linear_1_3)"/>
<path d="M3.70951 23.9124C7.84903 25.3749 11.9843 26.8416 16.1239 28.304C18.9354 29.3 20.1415 24.8327 17.351 23.8451C13.2115 22.3826 9.07618 20.9159 4.93666 19.4535C2.12515 18.4574 0.919015 22.9248 3.70951 23.9124Z" fill="url(#paint1_linear_1_3)"/>
<path d="M20.0995 5.98837C22.2008 8.52251 24.0835 11.2079 25.7856 14.0237C27.3237 16.5662 31.3203 14.2464 29.778 11.6912C27.87 8.53512 25.7225 5.55551 23.3691 2.71878C21.4695 0.428384 18.2126 3.71478 20.0995 5.98837Z" fill="url(#paint2_linear_1_3)"/>
<path d="M45.176 1.16384C43.5875 4.23591 41.8014 7.18611 39.8094 10.0144C38.0947 12.4519 42.0998 14.7633 43.8018 12.3468C45.7938 9.51853 47.5799 6.57253 49.1685 3.49626C50.5301 0.857054 46.5461 -1.48377 45.176 1.16384Z" fill="url(#paint3_linear_1_3)"/>
<path d="M64.8861 19.0247C60.9819 19.1802 57.0819 19.4324 53.1904 19.7854C50.2528 20.0502 50.2234 24.6772 53.1904 24.4082C57.0819 24.0552 60.9819 23.803 64.8861 23.6475C67.8531 23.5299 67.8657 18.9071 64.8861 19.0247Z" fill="url(#paint4_linear_1_3)"/>
<defs>
<linearGradient id="paint0_linear_1_3" x1="2.16282" y1="42.744" x2="13.5812" y2="42.744" gradientUnits="userSpaceOnUse">
<stop stop-color="#963F7F"/>
<stop offset="0.5" stop-color="#603C7D"/>
<stop offset="1" stop-color="#413A7E"/>
</linearGradient>
<linearGradient id="paint1_linear_1_3" x1="4.25164" y1="23.883" x2="16.8089" y2="23.883" gradientUnits="userSpaceOnUse">
<stop stop-color="#963F7F"/>
<stop offset="0.5" stop-color="#603C7D"/>
<stop offset="1" stop-color="#413A7E"/>
</linearGradient>
<linearGradient id="paint2_linear_1_3" x1="21.5746" y1="8.53092" x2="27.9625" y2="8.53092" gradientUnits="userSpaceOnUse">
<stop stop-color="#963F7F"/>
<stop offset="0.5" stop-color="#603C7D"/>
<stop offset="1" stop-color="#413A7E"/>
</linearGradient>
<linearGradient id="paint3_linear_1_3" x1="41.6375" y1="6.6818" x2="47.3614" y2="6.6818" gradientUnits="userSpaceOnUse">
<stop stop-color="#963F7F"/>
<stop offset="0.5" stop-color="#603C7D"/>
<stop offset="1" stop-color="#413A7E"/>
</linearGradient>
<linearGradient id="paint4_linear_1_3" x1="53.1694" y1="21.7186" x2="64.8945" y2="21.7186" gradientUnits="userSpaceOnUse">
<stop stop-color="#963F7F"/>
<stop offset="0.5" stop-color="#603C7D"/>
<stop offset="1" stop-color="#413A7E"/>
</linearGradient>
</defs>
</svg>
